<svg xmlns="http://www.w3.org/2000/svg" width="124.555" height="11.266" viewBox="0 0 124.555 11.266"><defs><style>.a{fill:#fff;}</style></defs><g transform="translate(13084.999 -7761.601)"><path class="a" d="M92.205,538.271a2.134,2.134,0,0,1-.811-.6,2.458,2.458,0,0,1-.476-.93,2.875,2.875,0,0,1-.058-1.185l.833-5.882a1.393,1.393,0,0,1,.4-.8,1.14,1.14,0,0,1,.753-.369.744.744,0,0,1,.65.278.934.934,0,0,1,.19.765l-.833,5.882a.7.7,0,0,0,.154.584.589.589,0,0,0,.515.218l12.469-.8a.739.739,0,0,1,.661.278.958.958,0,0,1,.18.766,1.4,1.4,0,0,1-.4.8,1.146,1.146,0,0,1-.753.369l-12.407.8a2.3,2.3,0,0,1-1.067-.172" transform="translate(-13175.824 7234.024)"/><path class="a" d="M213.993,520.359a7.068,7.068,0,0,1,.508-1.78,7.225,7.225,0,0,1,.988-1.664,5.817,5.817,0,0,1,1.374-1.266,3.391,3.391,0,0,1,1.665-.564l12.116-.781a.738.738,0,0,1,.661.278.955.955,0,0,1,.18.765,1.4,1.4,0,0,1-.4.8,1.146,1.146,0,0,1-.753.368l-11.679.752a2.492,2.492,0,0,0-1.215.364,3.076,3.076,0,0,0-.806.749,3.3,3.3,0,0,0-.483.934,5.459,5.459,0,0,0-.222.917,4.8,4.8,0,0,0-.036.906,2.188,2.188,0,0,0,.225.888,1.661,1.661,0,0,0,.606.658,1.867,1.867,0,0,0,1.135.212l11.679-.752a.741.741,0,0,1,.661.278.957.957,0,0,1,.18.766,1.4,1.4,0,0,1-.4.8,1.148,1.148,0,0,1-.753.369l-12.324.794a2.209,2.209,0,0,1-1.452-.364,3.054,3.054,0,0,1-.965-1.115,4.8,4.8,0,0,1-.487-1.58,6.253,6.253,0,0,1,0-1.737" transform="translate(-13280.351 7247.299)"/><path class="a" d="M351.3,511.672a2.178,2.178,0,0,0-.225-.888,1.648,1.648,0,0,0-.617-.657,1.876,1.876,0,0,0-1.123-.214l-7.5.483a2.489,2.489,0,0,0-1.215.364,3.064,3.064,0,0,0-.806.749,3.26,3.26,0,0,0-.483.934,5.464,5.464,0,0,0-.223.917l-.555,3.922a1.4,1.4,0,0,1-.4.8,1.145,1.145,0,0,1-.753.369.739.739,0,0,1-.661-.278.958.958,0,0,1-.179-.766l.555-3.922a7.087,7.087,0,0,1,.508-1.78,7.242,7.242,0,0,1,.988-1.664,5.818,5.818,0,0,1,1.374-1.266,3.39,3.39,0,0,1,1.665-.565l8.708-.561a2.37,2.37,0,0,1,1.443.422,3.207,3.207,0,0,1,.965,1.115,4.674,4.674,0,0,1,.492,1.545,5.979,5.979,0,0,1,0,1.714l-.555,3.922a1.4,1.4,0,0,1-.4.8,1.149,1.149,0,0,1-.753.369.739.739,0,0,1-.661-.278.951.951,0,0,1-.18-.766l.555-3.922a4.817,4.817,0,0,0,.036-.9" transform="translate(-13384.451 7254.41)"/><path class="a" d="M520.453,498.759a7.183,7.183,0,0,1,.987-1.663,5.817,5.817,0,0,1,1.374-1.266,3.394,3.394,0,0,1,1.666-.564l11.908-.767a.737.737,0,0,1,.66.278.951.951,0,0,1,.181.765,1.4,1.4,0,0,1-.4.8,1.145,1.145,0,0,1-.752.368l-11.472.739a2.541,2.541,0,0,0-1.157.327,2.6,2.6,0,0,0-.78.7,3.329,3.329,0,0,0-.466.887,6.551,6.551,0,0,0-.238.884l-.578,4.083a1.4,1.4,0,0,1-.4.8,1.143,1.143,0,0,1-.752.368.737.737,0,0,1-.661-.277.952.952,0,0,1-.18-.766l.555-3.922a7.056,7.056,0,0,1,.51-1.781m15.562-.032a.952.952,0,0,1,.18.765,1.4,1.4,0,0,1-.4.8,1.144,1.144,0,0,1-.752.368l-10.765.694a.739.739,0,0,1-.661-.277.954.954,0,0,1-.18-.767,1.394,1.394,0,0,1,.4-.8,1.137,1.137,0,0,1,.752-.369l10.765-.693a.738.738,0,0,1,.661.277" transform="translate(-13539.688 7267.105)"/><path class="a" d="M645.45,502.458a1.147,1.147,0,0,1-.753.369.739.739,0,0,1-.661-.277.955.955,0,0,1-.179-.766l1.111-7.843a1.39,1.39,0,0,1,.4-.8,1.141,1.141,0,0,1,.752-.369.738.738,0,0,1,.661.278.955.955,0,0,1,.18.765l-1.111,7.843a1.4,1.4,0,0,1-.4.8" transform="translate(-13645.369 7269.76)"/><path class="a" d="M687.094,494.491a1.4,1.4,0,0,1-.4.8,1.147,1.147,0,0,1-.753.369.668.668,0,0,1-.36-.069,1.161,1.161,0,0,1-.279-.21,1.614,1.614,0,0,1-.155-.219,6.166,6.166,0,0,0-1.495-1.733,5.516,5.516,0,0,0-1.758-.893,7.382,7.382,0,0,0-2.048-.29q-1.1-.01-2.368.072l-4.24.273-.4,2.814a1.378,1.378,0,0,1-.413.8,1.159,1.159,0,0,1-.742.368.739.739,0,0,1-.661-.277.957.957,0,0,1-.179-.766l.84-5.928a3.747,3.747,0,0,1,.4-1.26,4.277,4.277,0,0,1,.716-.983,3.463,3.463,0,0,1,.9-.664,2.436,2.436,0,0,1,.946-.278l10.849-.7a2.284,2.284,0,0,1,1.066.171,2.242,2.242,0,0,1,.822.6,2.385,2.385,0,0,1,.487.928,2.883,2.883,0,0,1,.059,1.185,1.4,1.4,0,0,1-.4.8,1.142,1.142,0,0,1-.753.369.736.736,0,0,1-.661-.278.949.949,0,0,1-.181-.765.678.678,0,0,0-.136-.563.691.691,0,0,0-.471-.244l-10.889.7a.757.757,0,0,0-.457.179.84.84,0,0,0-.259.37l-.17,1.2,4.24-.273a21.029,21.029,0,0,1,3.272.018,9.385,9.385,0,0,1,2.564.578,6.006,6.006,0,0,1,1.948,1.223,6.739,6.739,0,0,1,1.4,1.955.93.93,0,0,1,.12.61" transform="translate(-13668.279 7275.881)"/><path class="a" d="M793.867,487.263a1.148,1.148,0,0,1-.753.369.739.739,0,0,1-.661-.278.957.957,0,0,1-.179-.766l1.111-7.843a1.4,1.4,0,0,1,.4-.8,1.142,1.142,0,0,1,.753-.369.672.672,0,0,1,.362.068,1.67,1.67,0,0,1,.3.209,19.459,19.459,0,0,0,2.008,1.882,7.287,7.287,0,0,0,1.609.993,4.426,4.426,0,0,0,1.442.364,11.415,11.415,0,0,0,1.5,0,13.7,13.7,0,0,0,1.518-.178,5.664,5.664,0,0,0,1.539-.544,13.218,13.218,0,0,0,1.9-1.22q1.071-.8,2.608-2.2a1.314,1.314,0,0,1,.752-.369.739.739,0,0,1,.661.278.955.955,0,0,1,.18.765l-1.111,7.843a1.4,1.4,0,0,1-.4.8,1.148,1.148,0,0,1-.753.369.738.738,0,0,1-.661-.277.952.952,0,0,1-.181-.766l.774-5.467a19.69,19.69,0,0,1-1.993,1.5,13.351,13.351,0,0,1-1.809,1,9.255,9.255,0,0,1-1.7.577,10.3,10.3,0,0,1-1.661.245,9.851,9.851,0,0,1-1.695-.028,6.621,6.621,0,0,1-1.575-.367,7.456,7.456,0,0,1-1.537-.781,11.606,11.606,0,0,1-1.581-1.269l-.775,5.467a1.4,1.4,0,0,1-.4.8m5.909-1.158a1.806,1.806,0,0,1,.517-1.039,1.473,1.473,0,0,1,.974-.474.951.951,0,0,1,.855.357,1.233,1.233,0,0,1,.23.99,1.813,1.813,0,0,1-.517,1.04,1.474,1.474,0,0,1-.973.473.956.956,0,0,1-.856-.356,1.233,1.233,0,0,1-.23-.991" transform="translate(-13771.382 7285.03)"/></g></svg>