<svg xmlns="http://www.w3.org/2000/svg" width="26.663" height="23.33" viewBox="0 0 26.663 23.33"><defs><style>.a{fill:#939393;}</style></defs><g transform="translate(0)"><path class="a" d="M26.663,8.082v15a2.5,2.5,0,0,1-2.5,2.5H2.5A2.5,2.5,0,0,1,0,23.08v-15a2.5,2.5,0,0,1,2.5-2.5H7.082L7.723,3.87a2.5,2.5,0,0,1,2.338-1.62H16.6a2.5,2.5,0,0,1,2.338,1.62l.646,1.713h4.583A2.5,2.5,0,0,1,26.663,8.082Zm-7.082,7.5a6.249,6.249,0,1,0-6.249,6.249A6.254,6.254,0,0,0,19.58,15.581Z" transform="translate(0 -2.25)"/><path class="a" d="M16.053,12.274H13.215V9.435a.471.471,0,1,0-.941,0v2.838H9.435a.471.471,0,0,0,0,.941h2.838v2.838a.471.471,0,1,0,.941,0V13.215h2.838a.471.471,0,1,0,0-.941Z" transform="translate(0.589 0.478)"/></g></svg>