<svg xmlns="http://www.w3.org/2000/svg" width="8" height="9" viewBox="0 0 8 9"><defs><style>.a{fill:#f29a4e;}</style></defs><path class="a" d="M9.946,6.49H7.32L6.521,3.6a.275.275,0,0,0-.543,0L5.18,6.49H2.536a.321.321,0,0,0-.286.346.306.306,0,0,0,.005.058.354.354,0,0,0,.12.244L4.534,8.983,3.705,11.9a.393.393,0,0,0,.1.389.255.255,0,0,0,.161.084.314.314,0,0,0,.179-.078L6.25,10.478,8.357,12.3a.3.3,0,0,0,.179.078.238.238,0,0,0,.159-.084.387.387,0,0,0,.1-.389L7.964,8.983l2.141-1.861.052-.054a.4.4,0,0,0,.093-.231A.335.335,0,0,0,9.946,6.49Z" transform="translate(-2.25 -3.375)"/></svg>